<svg xmlns="http://www.w3.org/2000/svg" viewBox="0 0 100 100"><g fill="#FFE75A"><path d="M49.958 28.688c-9.278 0-16.804 7.525-16.804 16.81 0 3.056.857 5.898 2.24 8.391 4.126 7.438 5.221 11.613 5.896 15.654.564 3.387 1.344 4.174 3.902 4.174H54.725c2.563 0 3.344-.787 3.907-4.174.677-4.043 1.771-8.219 5.896-15.654 1.388-2.492 2.24-5.334 2.24-8.391.003-9.286-7.523-16.81-16.81-16.81zM55.971 74.934H43.958a.9.9 0 00-.903.9v.602c0 .496.403.9.903.9h12.013a.9.9 0 00.897-.9v-.602a.898.898 0 00-.897-.9zM55.971 78.537H43.958c-.5 0-.903.4-.903.9v.602a.9.9 0 00.903.898h12.013a.899.899 0 00.897-.898v-.602a.898.898 0 00-.897-.9zM55.971 82.141H43.958a.9.9 0 00-.903.9v.602a.9.9 0 00.903.9h12.013a.9.9 0 00.897-.9v-.602a.898.898 0 00-.897-.9zM45.458 85.744h9.013c0 1.801-2.406 3.002-4.513 3.002-2.097 0-4.5-1.201-4.5-3.002zM69.264 16.854c1.532-2.683-2.605-5.092-4.15-2.414-.809 1.399-6.662 11.541-6.662 11.541l4.162 2.402s5.199-9.017 6.646-11.518c.003-.001.003-.003.003-.003l.001-.008zM78.633 26.247l-.003.003-.008.001C76.51 27.472 67.456 32.7 67.456 32.7l2.397 4.16 11.188-6.458c2.686-1.548.275-5.689-2.408-4.155zM52.452 11.071v12.812h-4.806V11.071c0-3.098 4.806-3.098 4.806 0zM30.737 16.854c-1.532-2.683 2.606-5.092 4.152-2.414l6.661 11.541-4.158 2.402-6.652-11.518v-.003l-.003-.008zM21.371 26.247v.003l.007.001L32.545 32.7l-2.402 4.16-11.187-6.458c-2.683-1.548-.273-5.689 2.415-4.155z"/></g></svg>
